<?xml version="1.0" standalone="no"?>
<!DOCTYPE svg PUBLIC "-//W3C//DTD SVG 20010904//EN"
 "http://www.w3.org/TR/2001/REC-SVG-20010904/DTD/svg10.dtd">
<svg version="1.0" xmlns="http://www.w3.org/2000/svg"
 width="3264.000000pt" height="1836.000000pt" viewBox="0 0 3264.000000 1836.000000"
 preserveAspectRatio="xMidYMid meet">

<g transform="translate(0.000000,1836.000000) scale(0.100000,-0.100000)"
fill="#000000" stroke="none">
<path d="M5838 12340 c-26 -16 -30 -56 -18 -196 69 -846 86 -1595 49 -2202 -6
-100 -8 -193 -5 -206 3 -12 17 -28 31 -34 36 -16 158 -15 199 2 42 18 52 48
61 181 6 98 32 310 60 490 8 50 21 146 30 215 8 69 20 141 26 160 5 19 16 67
24 105 18 94 77 311 112 410 16 44 56 130 91 190 97 173 293 360 433 415 30
12 68 30 84 40 36 21 216 72 335 94 167 31 422 46 797 46 350 0 364 -1 383
-20 20 -20 20 -33 20 -2463 0 -1975 2 -2447 13 -2461 21 -28 122 -34 532 -32
571 4 513 0 531 41 12 30 14 365 14 2464 l0 2430 26 20 c26 20 37 21 418 21
403 0 584 -13 801 -55 231 -45 459 -143 550 -238 17 -18 61 -59 99 -92 68 -60
123 -132 150 -196 8 -19 23 -46 35 -60 41 -53 173 -481 191 -624 7 -49 21
-139 31 -200 11 -60 26 -159 34 -220 8 -60 19 -135 25 -165 5 -30 12 -91 16
-135 3 -44 14 -136 24 -205 18 -117 21 -127 50 -153 27 -24 37 -27 73 -22 23
3 62 7 86 9 81 8 84 16 71 217 -29 449 -3 1881 40 2184 21 156 22 201 1 226
-22 27 41 27 -886 7 -345 -7 -1273 -12 -2420 -12 -1691 0 -2115 5 -3005 30
-129 3 -201 2 -212 -6z"/>
<path d="M12678 12331 c-33 -26 -42 -66 -33 -147 9 -87 24 -103 107 -114 50
-6 87 -19 154 -56 171 -92 277 -203 381 -394 25 -47 52 -92 59 -101 19 -21 89
-192 129 -314 18 -55 58 -167 89 -250 31 -82 79 -217 107 -300 28 -82 58 -163
66 -179 8 -16 30 -74 48 -130 18 -55 49 -144 68 -196 20 -52 44 -122 55 -155
32 -96 97 -281 142 -400 43 -116 82 -224 160 -445 26 -74 70 -198 99 -275 29
-77 61 -167 72 -200 10 -33 24 -68 30 -78 6 -11 19 -49 29 -85 10 -37 52 -159
94 -271 42 -112 76 -208 76 -213 0 -5 18 -51 40 -102 21 -51 44 -115 50 -142
6 -26 15 -53 20 -59 8 -10 28 -63 75 -200 14 -38 41 -113 60 -165 20 -52 43
-117 52 -145 22 -73 44 -115 66 -127 20 -10 765 -19 960 -11 91 4 99 6 114 30
16 23 15 28 -5 86 -12 34 -50 145 -85 247 -36 102 -86 241 -112 310 -26 69
-55 155 -65 192 -10 37 -34 108 -55 157 -20 49 -54 145 -75 213 -21 68 -55
168 -75 223 -20 55 -60 172 -89 260 -29 88 -69 201 -89 250 -20 50 -58 158
-85 242 -28 83 -57 166 -66 185 -21 46 -53 137 -82 238 -25 84 -33 109 -133
390 -52 146 -126 358 -162 460 -10 30 -32 93 -50 140 -57 157 -91 255 -114
330 -13 41 -34 105 -48 141 -37 97 -87 351 -87 443 0 290 176 418 625 457 72
6 140 13 152 15 39 7 52 50 46 143 -8 112 -19 124 -111 117 -279 -23 -542 -29
-1287 -30 -767 0 -1054 6 -1245 30 -37 4 -51 1 -72 -15z"/>
<path d="M17957 12339 c-22 -13 -37 -71 -37 -145 0 -93 13 -102 190 -120 78
-7 165 -20 193 -28 29 -8 73 -17 99 -21 26 -3 101 -32 167 -63 99 -48 133 -70
193 -128 69 -66 77 -78 116 -177 23 -58 47 -132 53 -164 14 -74 5 -335 -14
-423 -8 -36 -20 -103 -27 -150 -7 -47 -18 -99 -25 -117 -7 -17 -18 -57 -25
-90 -6 -32 -24 -94 -40 -138 -16 -44 -45 -129 -64 -190 -19 -60 -53 -159 -74
-220 -22 -60 -62 -175 -90 -255 -88 -251 -119 -336 -133 -361 -7 -13 -25 -64
-40 -114 -15 -49 -46 -142 -69 -205 -72 -195 -185 -512 -205 -576 -7 -23 -18
-50 -24 -60 -14 -24 -35 -84 -131 -369 -43 -126 -95 -273 -116 -325 -20 -52
-54 -144 -74 -205 -21 -60 -54 -155 -74 -210 -20 -55 -56 -155 -79 -223 -39
-116 -41 -125 -26 -150 14 -25 19 -27 97 -30 63 -2 87 1 107 14 47 31 87 129
247 609 17 50 47 133 68 185 21 52 47 122 58 155 30 90 135 388 171 485 17 47
43 121 57 165 15 44 30 85 35 91 10 12 77 204 104 294 7 25 30 88 50 140 56
142 105 279 120 333 14 49 40 119 81 217 12 30 53 143 90 250 117 340 171 493
194 550 12 30 46 125 75 210 29 85 63 178 75 205 12 28 37 91 56 142 34 94
145 325 204 423 97 165 271 350 396 422 82 48 193 98 217 98 8 0 22 9 32 20
14 16 18 39 20 111 1 82 -1 95 -20 117 l-22 26 -229 -14 c-271 -17 -1250 -17
-1469 -1 -202 16 -439 20 -458 10z"/>
<path d="M20418 12328 c-17 -17 -20 -28 -14 -73 3 -29 13 -153 21 -276 8 -123
19 -270 25 -327 29 -309 35 -1397 9 -1771 -10 -141 -10 -144 12 -167 21 -22
30 -24 113 -24 128 1 144 17 156 152 19 214 27 273 96 733 39 256 107 563 140
627 8 15 28 64 44 108 56 152 182 328 315 440 68 57 256 164 315 180 25 6 79
22 120 35 41 13 107 28 145 34 251 39 327 44 756 48 l436 5 17 -23 c15 -22 16
-222 16 -2461 l0 -2437 24 -28 24 -28 496 0 c490 0 496 0 516 21 12 12 26 39
31 60 5 23 9 1014 8 2454 0 2292 1 2415 17 2427 14 10 94 13 348 13 535 -1
728 -17 972 -79 147 -38 293 -100 385 -163 57 -39 169 -129 169 -136 0 -4 27
-40 59 -81 33 -40 76 -101 95 -134 53 -89 121 -267 155 -405 17 -67 33 -127
37 -133 19 -32 119 -686 144 -948 26 -270 32 -281 161 -281 54 0 90 5 111 16
l31 16 -6 81 c-4 45 -12 244 -18 442 -12 375 0 1182 21 1420 5 61 14 180 20
265 6 85 15 202 20 260 10 115 7 135 -19 150 -12 6 -171 5 -442 -1 -233 -6
-703 -14 -1044 -19 -834 -10 -3810 -3 -4210 9 -176 6 -430 12 -563 15 -235 4
-244 4 -264 -16z"/>
<path d="M7947 6082 c-21 -23 -22 -56 -1 -76 13 -13 43 -16 173 -16 120 0 162
-3 177 -14 18 -14 19 -34 24 -543 6 -593 3 -574 75 -586 44 -7 92 1 103 17 4
6 7 255 8 553 0 421 3 545 13 556 10 13 44 16 171 19 147 3 161 5 181 24 18
19 19 25 9 45 -7 13 -18 27 -24 31 -6 4 -209 8 -452 8 -415 0 -442 -1 -457
-18z"/>
<path d="M9460 6082 l-22 -17 2 -550 c1 -303 5 -570 9 -593 11 -58 29 -74 90
-80 84 -8 81 -17 81 279 0 221 2 260 16 273 13 14 51 16 258 16 178 0 247 -3
259 -12 15 -11 17 -40 17 -238 1 -126 6 -240 12 -258 17 -54 106 -81 156 -47
20 15 21 21 17 113 -3 53 -5 321 -5 595 0 493 0 497 -21 518 -18 18 -30 21
-75 17 -30 -3 -60 -10 -67 -17 -9 -9 -13 -83 -15 -264 -3 -214 -5 -254 -19
-269 -15 -16 -39 -18 -264 -18 -187 0 -250 3 -256 13 -4 6 -10 130 -13 275 -4
219 -8 264 -20 272 -26 17 -116 12 -140 -8z"/>
<path d="M11007 6093 c-10 -3 -21 -14 -25 -26 -4 -12 -5 -286 -2 -609 4 -463
8 -590 18 -600 20 -20 732 -19 755 1 20 16 22 64 4 79 -8 7 -111 12 -291 14
-261 3 -278 4 -292 22 -11 16 -14 61 -14 210 0 105 5 198 10 206 8 12 52 16
261 20 249 5 251 5 270 29 24 30 24 46 -1 71 -19 19 -33 20 -252 20 -168 0
-240 4 -258 13 l-25 13 -3 193 c-2 162 0 197 13 217 l15 24 269 0 c252 0 269
1 285 19 24 26 13 77 -17 85 -26 7 -693 6 -720 -1z"/>
<path d="M13117 6094 c-38 -11 -40 -52 -8 -128 71 -169 102 -250 200 -526 27
-74 67 -184 91 -245 23 -60 52 -139 65 -175 28 -84 47 -120 77 -147 32 -29 86
-38 129 -20 32 13 36 21 67 118 19 57 42 124 52 149 56 141 100 260 100 272 1
7 7 29 14 48 8 19 37 98 66 175 150 404 156 429 121 464 -45 45 -113 18 -131
-52 -6 -23 -32 -100 -57 -172 -25 -71 -54 -157 -64 -190 -10 -33 -43 -132 -74
-220 -32 -88 -68 -193 -82 -232 -18 -49 -32 -75 -46 -79 -32 -10 -18 -43 -175
411 -114 332 -177 497 -202 527 -12 16 -30 22 -71 24 -30 1 -62 0 -72 -2z"/>
<path d="M14680 6082 l-22 -18 1 -560 c1 -603 3 -626 52 -651 29 -15 84 -17
110 -3 18 10 19 28 19 606 l0 595 -25 24 c-30 31 -101 35 -135 7z"/>
<path d="M15474 6074 c-20 -19 -24 -30 -18 -47 4 -12 10 -278 13 -592 l6 -569
23 -12 c16 -8 106 -11 285 -10 l262 1 58 30 c117 60 161 117 191 248 17 74 12
123 -23 218 -21 55 -50 90 -104 124 -43 28 -45 59 -5 103 75 83 83 106 80 219
-3 129 -17 166 -87 227 -98 84 -104 86 -398 86 l-258 0 -25 -26z m499 -132
c45 -34 58 -51 72 -93 40 -120 -22 -246 -136 -279 -19 -6 -77 -10 -131 -10
-141 0 -142 1 -137 236 5 200 1 195 164 191 l114 -4 54 -41z m12 -525 c52 -28
64 -40 88 -89 40 -80 46 -157 17 -235 -28 -79 -53 -101 -137 -124 -109 -31
-275 -22 -295 15 -15 27 -11 435 4 453 7 9 46 13 137 13 122 -1 128 -2 186
-33z"/>
<path d="M16885 6086 c-18 -13 -19 -34 -16 -583 1 -313 6 -585 10 -604 12 -58
19 -59 391 -58 184 1 346 4 360 8 21 6 26 14 28 49 3 36 0 42 -20 47 -13 2
-144 6 -291 7 -253 3 -269 4 -283 22 -20 27 -21 408 -1 424 8 7 105 12 266 14
237 3 254 4 267 22 18 25 18 57 1 80 -13 17 -32 18 -264 17 -220 -2 -252 0
-267 14 -14 14 -16 44 -16 205 0 104 4 200 10 214 l9 25 281 3 c305 3 300 2
300 60 0 17 -7 31 -19 38 -13 6 -149 10 -373 10 -286 0 -358 -3 -373 -14z"/>
<path d="M18982 6088 c-22 -29 -23 -57 -3 -77 19 -19 34 -21 149 -22 70 -1
133 -1 141 1 22 3 69 -20 78 -38 4 -10 10 -255 13 -545 5 -509 6 -529 24 -543
24 -17 127 -19 144 -2 9 9 12 145 12 549 l0 538 26 20 c24 19 40 21 163 21
154 0 184 9 189 55 7 55 9 55 -479 55 -345 0 -449 -3 -457 -12z"/>
<path d="M20481 6081 c-19 -19 -20 -31 -17 -588 3 -626 3 -624 61 -643 43 -14
103 -3 115 21 6 10 10 112 10 232 0 249 -2 244 89 240 77 -4 89 -9 110 -52 11
-20 27 -44 36 -51 10 -8 28 -37 41 -65 13 -27 39 -73 57 -101 17 -28 47 -77
65 -107 45 -75 91 -114 144 -122 53 -8 98 8 98 33 0 11 -11 35 -23 54 -13 19
-41 65 -62 104 -21 38 -48 85 -61 104 -13 19 -24 39 -24 44 0 5 -10 23 -23 40
-12 17 -33 50 -46 74 -29 54 -19 87 38 119 58 33 108 101 137 184 22 63 25 86
21 155 -3 51 -12 98 -25 127 -29 66 -116 155 -182 186 -54 25 -61 26 -297 29
-231 3 -243 2 -262 -17z m432 -111 c97 -36 146 -115 147 -236 0 -138 -40 -208
-149 -258 -38 -17 -63 -20 -145 -18 -55 1 -104 6 -109 11 -5 5 -10 114 -11
242 -1 290 -6 279 124 279 65 0 104 -6 143 -20z"/>
<path d="M21864 6090 c-12 -4 -23 -14 -25 -22 -2 -7 -2 -277 1 -600 6 -671 -2
-622 93 -622 95 -1 88 -55 85 621 l-3 595 -24 19 c-25 20 -89 25 -127 9z"/>
<path d="M22657 6088 c-18 -13 -19 -42 -17 -598 1 -436 4 -590 13 -609 17 -36
63 -41 342 -38 l230 3 55 28 c110 57 155 108 184 207 12 40 15 73 10 129 -10
114 -37 175 -105 242 -33 31 -59 60 -59 65 0 5 15 27 34 49 18 21 44 59 57 84
53 101 14 298 -75 372 -87 74 -82 73 -381 76 -217 3 -274 1 -288 -10z m468
-126 c61 -33 94 -92 102 -180 6 -61 -5 -93 -51 -155 -42 -57 -72 -67 -203 -67
-100 0 -123 3 -134 17 -10 12 -15 61 -17 190 -5 231 -11 222 141 222 103 0
117 -3 162 -27z m-2 -526 c137 -49 203 -204 143 -338 -28 -63 -94 -122 -155
-137 -55 -14 -257 -9 -273 7 -18 18 -25 446 -8 467 17 20 238 20 293 1z"/>
<path d="M24058 6078 c-19 -33 -9 -1201 10 -1220 10 -10 92 -13 377 -13 396 0
386 -1 400 56 11 47 -1 49 -302 52 -220 1 -284 5 -296 16 -15 12 -17 40 -17
217 0 191 1 204 19 214 12 6 109 10 246 10 241 0 276 6 290 50 7 23 -18 69
-38 71 -6 0 -115 0 -240 -1 -196 -1 -232 1 -253 15 l-25 16 3 200 c3 185 5
202 22 215 16 11 69 14 261 14 242 0 298 6 309 36 8 20 -9 60 -29 68 -9 3
-176 6 -371 6 l-354 0 -12 -22z"/>
<path d="M8093 3750 c-39 -4 -76 -11 -81 -14 -24 -15 -283 -49 -534 -71 -104
-10 -113 -20 -113 -130 0 -68 3 -87 20 -105 19 -21 24 -21 215 -17 1484 31
1460 31 2128 17 1147 -24 1052 -23 1073 -4 16 14 19 32 19 110 0 114 -5 119
-130 128 -140 11 -379 45 -480 68 -93 21 -112 21 -1070 24 -536 1 -1007 -2
-1047 -6z"/>
<path d="M16197 3742 c-31 -34 -23 -69 73 -340 16 -42 55 -62 125 -62 92 0
106 13 148 132 71 207 81 260 48 278 -12 6 -94 10 -199 10 -161 0 -181 -2
-195 -18z"/>
<path d="M22645 3745 c-44 -7 -109 -20 -145 -28 -60 -14 -295 -42 -432 -50
-79 -6 -108 -26 -110 -80 -3 -94 4 -152 20 -164 20 -16 250 -16 722 1 422 16
1416 19 1750 6 135 -5 399 -12 586 -16 405 -8 374 -18 374 117 0 76 -3 92 -20
109 -11 11 -26 20 -32 21 -107 4 -464 45 -479 54 -4 3 -61 14 -126 25 -111 18
-172 20 -1073 19 -725 -1 -974 -4 -1035 -14z"/>
</g>
</svg>
